<?xml version="1.0" encoding="utf-8"?>
<!-- Generator: Adobe Illustrator 14.0.0, SVG Export Plug-In . SVG Version: 6.00 Build 43363)  -->
<!DOCTYPE svg PUBLIC "-//W3C//DTD SVG 1.1//EN" "http://www.w3.org/Graphics/SVG/1.1/DTD/svg11.dtd">
<svg version="1.1" id="Layer_1" xmlns="http://www.w3.org/2000/svg" xmlns:xlink="http://www.w3.org/1999/xlink" x="0px" y="0px"
	 width="46px" height="46px" viewBox="0 0 46 46" enable-background="new 0 0 46 46" xml:space="preserve">
<g>
	<path fill="#FFFFFF" d="M39.057,6.937C30.201-1.926,15.792-1.926,6.934,6.934c-8.856,8.857-8.856,23.273,0,32.132
		c8.858,8.861,23.271,8.86,32.123-0.002C47.926,30.207,47.926,15.791,39.057,6.937z"/>
	<g>
		<path fill="#293152" d="M16.666,28.957c0,0,0.261,1.949,1.901,2.852l-0.437-0.814C18.131,30.994,18.965,28.803,16.666,28.957z"/>
		<path fill="#293152" d="M37.908,8.085c-8.225-8.229-21.6-8.229-29.823-0.002c-8.223,8.226-8.223,21.608,0,29.834
			s21.603,8.224,29.823,0C46.141,29.691,46.141,16.309,37.908,8.085z M35.729,35.733c-0.23,0.228-0.455,0.446-0.689,0.656
			c-5.066,4.13-8.969,2.075-9.014,2.075c-2.645-0.528-3.958-0.537-4.699-1.033c-0.187-0.125-0.786-0.446-0.922-0.369
			c-0.54,0.322-1.282,0.486-2.047-0.121c-0.069-0.057-0.131-0.116-0.192-0.173c-0.84-0.84-0.554-1.706-0.275-2.006
			c0.193-0.197-0.148-0.751-0.148-0.751s-0.993-1.476-1.672-2.363c-0.747-0.975-0.848-2.908-0.857-2.933l-0.01-0.028
			c-0.755-0.897-0.834-1.173-1.095-1.61c-0.152-0.258-0.386-0.501-0.584-0.708c-0.136-0.138-0.263-0.267-0.351-0.387
			c-0.021-0.026-0.025-0.064-0.017-0.124c0.067-0.419,0.969-1.342,1.163-1.47c0.238-0.155,1.264-0.778,1.264-0.778
			s0.578-0.906,1.56-0.906c0.885,0.003,1.426-0.051,2.953,0.447l0.636,0.201c1.065,0.342,2.003,0.744,2.749,1.066
			c0.634,0.273,1.14,0.493,1.528,0.594c1.316,0.348,3.641-0.718,4.131-1.169c0.805-0.731,1.15-1.222,1.154-1.624
			c0.008-0.226-0.092-0.422-0.32-0.659c-0.117-0.11-0.27-0.313-0.463-0.507c-0.029-0.031-0.063-0.066-0.102-0.094
			c-2.229-2.369-1.844-3.854-1.84-3.879c0.094-1.065-0.516-1.748-1.172-2.457l-0.109-0.133c-0.035-0.032-0.076-0.086-0.076-0.086
			c0.949,0.156,1.596,0.538,3.451,0.744c1.055,0.113,0.721,0.104,1.563,0.082c1.16-0.037,2.08-0.139,2.143-0.402
			c-0.113-0.096-0.627,0.029-3.09-0.912c-1.139-0.438-1.318-0.502-2.045-0.743c-0.932-0.314-1.941-0.75-1.941-0.75
			c4.018,1.054,5.33,1.466,7.17,1.492c0.709,0.013,1.133-0.073,1.381-0.124c0.262-0.047,1.072-0.231,1.166-0.512
			c0.027-0.048-0.779,0.132-2.27-0.359c-4.688-1.55-5.088-2.325-7.688-3.336c-0.904-0.352-1.201-0.546-3.939-1.252
			c-1.255-0.321-3.151-0.138-3.408,0.024c-3.556-0.835-4.363-0.743-5.406-0.521c6.955-4.459,16.347-3.655,22.431,2.43
			c0.824,0.826,1.555,1.715,2.195,2.656l0.084,0.13c1.953,2.922,2.994,6.352,2.994,9.944C41.002,27.811,39.129,32.329,35.729,35.733
			z M23.921,15.405c1.764,0.63,2.331,2.51,2.331,2.51c-2.242,0.511-1.77-1.78-1.77-1.78L23.921,15.405z"/>
	</g>
</g>
</svg>
